<svg width="41" height="40" viewBox="0 0 41 40" fill="none" xmlns="http://www.w3.org/2000/svg">
<path d="M26.4189 19.3795C27.7235 19.3795 28.7578 19.8409 29.5215 20.7637C30.2852 21.7184 30.6671 22.8481 30.6671 24.1527C30.6671 25.1392 30.4841 25.9825 30.1181 26.6826C29.7522 27.3827 29.2987 27.9554 28.7578 28.401C28.2168 28.8465 27.5485 29.1806 26.753 29.4033C25.9256 29.6579 25.1539 29.817 24.4379 29.8807C23.722 29.9443 22.9025 29.9761 21.9797 29.9761H19.1635C18.2725 29.9761 17.461 29.9443 16.7291 29.8807C15.9972 29.817 15.2176 29.6579 14.3902 29.4033C13.5628 29.1806 12.8946 28.8465 12.3854 28.401C11.8445 27.9554 11.399 27.3827 11.0489 26.6826C10.6989 25.9825 10.5239 25.1392 10.5239 24.1527C10.5239 22.8481 10.9057 21.7184 11.6695 20.7637C12.4332 19.8409 13.4674 19.3795 14.7721 19.3795C15.0267 19.3795 15.4165 19.4113 15.9415 19.4749C16.4666 19.5386 17.1428 19.6181 17.9702 19.7136C18.352 19.7772 18.7657 19.825 19.2112 19.8568C19.6567 19.8886 20.1181 19.9045 20.5955 19.9045C21.041 19.9045 21.4865 19.8886 21.932 19.8568C22.3775 19.825 22.7912 19.7772 23.173 19.7136C24.0322 19.6181 24.7243 19.5386 25.2494 19.4749C25.7745 19.4113 26.1643 19.3795 26.4189 19.3795ZM16.4905 26.778C16.9996 26.1734 17.294 25.5211 17.3735 24.821C17.4531 24.1209 17.3974 23.4527 17.2064 22.8162C17.0473 22.3389 16.8007 21.9093 16.4666 21.5274C16.1325 21.1456 15.7426 20.9547 15.2971 20.9547C14.8516 20.9547 14.4379 21.1456 14.0561 21.5274C13.5788 22.1321 13.3003 22.7844 13.2208 23.4845C13.1412 24.1846 13.181 24.8528 13.3401 25.4893C13.4992 25.9666 13.7458 26.3962 14.08 26.778C14.4141 27.1599 14.8198 27.3508 15.2971 27.3508C15.7426 27.3508 16.1404 27.1599 16.4905 26.778ZM27.0871 26.778C27.5963 26.1734 27.8906 25.5211 27.9702 24.821C28.0497 24.1209 27.9781 23.4527 27.7554 22.8162C27.6281 22.3389 27.3974 21.9093 27.0632 21.5274C26.7291 21.1456 26.3393 20.9547 25.8938 20.9547C25.4483 20.9547 25.0346 21.1456 24.6527 21.5274C24.1754 22.1321 23.897 22.7844 23.8174 23.4845C23.7379 24.1846 23.7776 24.8528 23.9368 25.4893C24.0959 25.9666 24.3425 26.3962 24.6766 26.778C25.0107 27.1599 25.4165 27.3508 25.8938 27.3508C26.3393 27.3508 26.7371 27.1599 27.0871 26.778ZM20.5 0C23.2685 0 25.862 0.52506 28.2804 1.57518C30.6989 2.6253 32.815 4.04932 34.6289 5.84726C36.4427 7.64519 37.8747 9.76134 38.9248 12.1957C39.9749 14.6301 40.5 17.2315 40.5 20C40.5 22.7685 39.9749 25.362 38.9248 27.7804C37.8747 30.1989 36.4427 32.315 34.6289 34.1289C32.815 35.9427 30.6989 37.3747 28.2804 38.4248C25.862 39.4749 23.2685 40 20.5 40C17.7315 40 15.138 39.4749 12.7196 38.4248C10.3011 37.3747 8.18496 35.9427 6.37112 34.1289C4.55728 32.315 3.1253 30.1989 2.07518 27.7804C1.02506 25.362 0.5 22.7685 0.5 20C0.5 17.2315 1.02506 14.6301 2.07518 12.1957C3.1253 9.76134 4.55728 7.64519 6.37112 5.84726C8.18496 4.04932 10.3011 2.6253 12.7196 1.57518C15.138 0.52506 17.7315 0 20.5 0ZM33.3401 26.7303C34.0084 25.362 34.3425 23.5322 34.3425 21.241C34.3425 18.568 33.5947 16.3723 32.099 14.6539C32.3854 13.7629 32.5286 12.8401 32.5286 11.8854C32.5286 10.6444 32.2582 9.43516 31.7172 8.25776C30.5716 8.25776 29.5215 8.48051 28.5668 8.92601C28.1213 9.14877 27.644 9.42721 27.1348 9.76134C26.6257 10.0955 26.0688 10.4853 25.4642 10.9308C24.0322 10.5489 22.4889 10.358 20.8341 10.358C19.9431 10.358 19.076 10.4137 18.2327 10.5251C17.3894 10.6364 16.5541 10.7876 15.7267 10.9785C14.5175 10.0239 13.4674 9.3397 12.5764 8.92601C11.6217 8.48051 10.5875 8.25776 9.47375 8.25776C8.90095 9.40334 8.61456 10.6126 8.61456 11.8854C8.61456 12.8719 8.75776 13.8107 9.04415 14.7017C7.54853 16.4519 6.80072 18.6317 6.80072 21.241C6.80072 23.5322 7.15076 25.362 7.85084 26.7303C8.35998 27.8441 9.14757 28.7271 10.2136 29.3795C11.2796 30.0318 12.3854 30.5012 13.531 30.7876C14.3584 31.0422 15.2017 31.2172 16.0609 31.3126C16.5064 31.3763 16.936 31.424 17.3496 31.4558C17.7633 31.4877 18.1452 31.5036 18.4952 31.5036C18.8453 31.5354 19.2112 31.5513 19.5931 31.5513H22.29L23.6026 31.5036L24.9153 31.3604L26.4189 31.1217C27.5326 30.9308 28.4714 30.6762 29.2351 30.358C30.0625 30.008 30.8421 29.5227 31.574 28.9021C32.3059 28.2816 32.8946 27.5577 33.3401 26.7303Z" fill="white"/>
</svg>
