<svg width="41" height="40" viewBox="0 0 41 40" fill="none" xmlns="http://www.w3.org/2000/svg">
<path d="M20.4761 0C23.2479 0 25.8445 0.525687 28.2658 1.57706C30.6872 2.62843 32.8059 4.05416 34.6219 5.85424C36.4379 7.65432 37.8716 9.76503 38.9229 12.1864C39.9743 14.6077 40.5 17.2043 40.5 19.9761C40.5 22.7479 39.9743 25.3445 38.9229 27.7658C37.8716 30.1872 36.4379 32.3059 34.6219 34.1219C32.8059 35.9379 30.6872 37.3716 28.2658 38.4229C25.8445 39.4743 23.2479 40 20.4761 40C17.7043 40 15.1077 39.4743 12.6864 38.4229C10.265 37.3716 8.15432 35.9379 6.35424 34.1219C4.55416 32.3059 3.12843 30.1872 2.07706 27.7658C1.02569 25.3445 0.5 22.7479 0.5 19.9761C0.5 17.2043 1.02569 14.6077 2.07706 12.1864C3.12843 9.76503 4.55416 7.65432 6.35424 5.85424C8.15432 4.05416 10.265 2.62843 12.6864 1.57706C15.1077 0.525687 17.7043 0 20.4761 0ZM14.2634 15.006H9.24552V31.2545H14.2634V15.006ZM11.7306 13.7157C12.4315 13.7157 13.0289 13.4767 13.5227 12.9988C14.0165 12.5209 14.2634 11.9315 14.2634 11.2306C14.2634 10.5297 14.0165 9.94026 13.5227 9.46237C13.0289 8.98447 12.4315 8.74552 11.7306 8.74552C11.0297 8.74552 10.4403 8.98447 9.96237 9.46237C9.48447 9.94026 9.24552 10.5297 9.24552 11.2306C9.24552 11.9315 9.48447 12.5209 9.96237 12.9988C10.4403 13.4767 11.0297 13.7157 11.7306 13.7157ZM31.7545 21.8399C31.7545 20.693 31.4359 19.5699 30.7987 18.4707C30.1615 17.3716 29.3331 16.5352 28.3136 15.9618C27.3897 15.452 26.3144 15.1812 25.0878 15.1493C23.8612 15.1175 22.7382 15.3246 21.7186 15.7706V15.006H16.7485V31.2545H21.7186V21.3142L23.8214 20.3106C24.0763 20.1832 24.4188 20.1195 24.8489 20.1195C25.279 20.1195 25.6215 20.1991 25.8763 20.3584C26.0675 20.454 26.2587 20.6611 26.4498 20.9797C26.641 21.2983 26.7366 21.585 26.7366 21.8399V31.2545H31.7545V21.8399Z" fill="white"/>
</svg>
